<svg xmlns="http://www.w3.org/2000/svg" width="128" height="108" viewBox="0 0 128 108" fill="none"><path d="M33.5322 16.0006C32.2318 16.0006 31.2632 17.1485 31.2632 18.4052V35.0144H31.0565L31.0571 35.0139C30.4742 35.015 30.0024 35.487 30 36.0701V37.403C30 39.3144 31.4363 40.9962 33.3255 40.9962H59.5547C61.4433 40.9962 62.8801 39.3144 62.8801 37.403V36.0701C62.8778 35.4852 62.403 35.0121 61.8183 35.0139H61.6116V18.4046C61.6116 17.1479 60.6496 16 59.3497 16L33.5322 16.0006ZM33.5322 18.1236H59.3502C59.3868 18.1236 59.499 18.1703 59.499 18.4051L59.4996 35.0144H33.3823V18.4051C33.3823 18.1703 33.4963 18.1236 33.5329 18.1236H33.5322ZM66.6872 26.4526V26.452C66.1043 26.4532 65.6319 26.9263 65.6307 27.51C65.6319 28.0943 66.1043 28.5674 66.6872 28.5685H88.6862V51.2078L83.2925 45.8049C83.0953 45.6062 82.8278 45.4938 82.5484 45.4921C82.2667 45.4921 81.9974 45.605 81.799 45.8049C81.388 46.2183 81.388 46.8865 81.799 47.2999L88.9791 54.4898C89.0004 54.5105 89.0222 54.5306 89.0452 54.5496C89.0825 54.5827 89.1226 54.6128 89.1645 54.6406C89.1941 54.6607 89.2254 54.6797 89.2567 54.6968C89.3104 54.7252 89.3665 54.7489 89.4238 54.7678C89.461 54.779 89.4982 54.7879 89.5366 54.7944C89.5774 54.8021 89.6187 54.808 89.6606 54.811C89.6878 54.8157 89.7156 54.8198 89.7433 54.8228C90.0605 54.8234 90.3616 54.682 90.563 54.4366L97.6917 47.2998C98.1028 46.8864 98.1028 46.2182 97.6917 45.8048C97.4939 45.6049 97.224 45.492 96.9429 45.492C96.663 45.4937 96.3954 45.6061 96.1988 45.8048L90.8045 51.2065V27.5105C90.8039 27.2296 90.6917 26.96 90.4926 26.7612C90.2936 26.5631 90.0237 26.452 89.7432 26.4525L66.6872 26.4526ZM32.1186 37.1293H60.7623V37.4042C60.7623 38.2948 60.1782 38.8762 59.5551 38.8762H33.3259C32.7035 38.8762 32.1188 38.2949 32.1188 37.4042L32.1186 37.1293ZM47.138 49.8593H47.1386C46.8563 49.8593 46.5864 49.9722 46.3874 50.1721L39.1878 57.3816C38.9888 57.5809 38.8766 57.8511 38.8766 58.1326C38.8766 58.4147 38.9888 58.6849 39.1878 58.8836C39.3862 59.0835 39.6561 59.1959 39.9378 59.1959C40.2195 59.1959 40.4894 59.0835 40.6878 58.8836L46.0821 53.4838V77.1691H46.0815C46.0804 77.4512 46.1914 77.7215 46.3892 77.9214C46.5877 78.1213 46.857 78.2336 47.1387 78.2342H70.193C70.4741 78.2336 70.7439 78.1213 70.9424 77.9214C71.1402 77.7215 71.2512 77.4512 71.2495 77.1691C71.2477 76.586 70.7758 76.1141 70.1929 76.1129H48.1939V53.4828L53.5882 58.8845C54.001 59.2961 54.6684 59.2961 55.0812 58.8845C55.2808 58.6858 55.393 58.4155 55.393 58.1334C55.393 57.8519 55.2808 57.5817 55.0812 57.3824L47.9277 50.2142C47.9147 50.2 47.9017 50.1864 47.8881 50.1728C47.6897 49.973 47.4204 49.8606 47.1393 49.86L47.138 49.8593ZM83.861 60.892C82.9628 60.892 82.2057 61.6519 82.2057 62.5514V84.3489C82.2057 85.2484 82.9628 86 83.861 86H96.1489C97.0472 86 97.8043 85.2484 97.8043 84.3489L97.8048 62.5514C97.8048 61.6519 97.0477 60.892 96.1495 60.892H83.861ZM84.324 63.0133H95.6859V64.6231H84.3246L84.324 63.0133ZM84.324 66.7438H95.6859V80.1497H84.3246L84.324 66.7438ZM84.324 82.2706H95.6859V83.8785H84.3246L84.324 82.2706Z" fill="#0E73E4"></path></svg>