<svg xmlns="http://www.w3.org/2000/svg" width="128" height="108" viewBox="0 0 128 108" fill="none"><path d="M95.5334 72.5181H85.5228C84.806 72.5181 84.2242 71.9364 84.2242 71.2195C84.2242 70.5026 84.806 69.9209 85.5228 69.9209H95.5334C96.2486 69.9209 96.8303 69.2939 96.8303 68.5214V17.3547C96.8303 16.5839 96.2486 15.9552 95.5334 15.9552L32.4707 15.9546C31.7556 15.9546 31.1739 16.5815 31.1739 17.3541V68.5193C31.1739 69.2901 31.7556 69.9188 32.4707 69.9188H52.5567C53.2736 69.9188 53.8553 70.5006 53.8553 71.2175C53.8553 71.9343 53.2736 72.516 52.5567 72.516L32.4707 72.5178C30.3236 72.5178 28.5762 70.7251 28.5762 68.5205V17.3537C28.5762 15.1492 30.3237 13.3564 32.4707 13.3564H95.5334C97.6806 13.3564 99.428 15.1492 99.428 17.3537V68.519C99.4303 70.7242 97.6822 72.5169 95.5334 72.5169V72.5181Z" fill="#0E73E4"></path><path d="M98.1287 29.0044H29.8767C29.1599 29.0044 28.5781 28.4227 28.5781 27.7058C28.5781 26.989 29.1599 26.4072 29.8767 26.4072H98.1317C98.8485 26.4072 99.4303 26.989 99.4303 27.7058C99.4303 28.4227 98.8462 29.0044 98.1288 29.0044H98.1287Z" fill="#0E73E4"></path><path d="M67.0408 88.9997C66.0189 88.9997 65.128 88.248 64.9588 87.2371L64.3875 83.8303C64.1833 83.7531 63.9815 83.6691 63.782 83.5832L61.0339 85.6439C60.2011 86.2686 59.0521 86.1978 58.3011 85.4763L55.0914 82.385C54.3444 81.6635 54.2348 80.4827 54.838 79.637L56.8732 76.784C56.7896 76.5996 56.7102 76.4145 56.6325 76.226L53.1891 75.7342C52.1585 75.5863 51.3964 74.725 51.3749 73.6839L51.2914 69.229C51.2722 68.1896 52.0297 67.2773 53.0539 67.108L56.4671 66.5367C56.5425 66.3325 56.622 66.129 56.7055 65.9271L54.6466 63.1833C54.0219 62.3504 54.0927 61.2014 54.8142 60.4504L57.9055 57.2408C58.627 56.4937 59.8078 56.3841 60.6535 56.9873L63.3842 58.9343C63.6161 58.8247 63.8499 58.722 64.0883 58.6252L64.5563 55.3407C64.7025 54.3101 65.5655 53.548 66.6066 53.5288C68.0601 53.501 71.0314 53.4453 71.0998 53.4453C72.1218 53.4453 73.0127 54.197 73.1819 55.2079L73.7167 58.4047C73.9934 58.5033 74.2683 58.6106 74.5391 58.7266L77.1044 56.801C77.9372 56.1764 79.0862 56.2472 79.8372 56.9687L83.0469 60.06C83.7939 60.7815 83.9035 61.9622 83.3003 62.808L81.4478 65.4057C81.5806 65.687 81.703 65.9724 81.8149 66.2624L84.9475 66.709C85.9781 66.8569 86.7402 67.7181 86.7593 68.7593L86.8429 73.2142C86.862 74.2535 86.1045 75.1659 85.0803 75.3352L81.892 75.8699C81.7888 76.1466 81.6774 76.4198 81.5574 76.6877L83.4876 79.2594C84.1122 80.0922 84.0415 81.2412 83.32 81.9922L80.2287 85.2019C79.5072 85.9489 78.3264 86.0585 77.4807 85.4553L74.7582 83.5147C74.5245 83.6197 74.2878 83.7189 74.0477 83.8111L73.5773 87.1019C73.4312 88.1326 72.5681 88.8946 71.527 88.9138L67.0721 88.9973C67.0663 88.9996 67.0535 88.9996 67.0408 88.9996L67.0408 88.9997ZM64.6083 81.1036C64.907 81.2411 65.2162 81.3675 65.5253 81.4795C66.2486 81.737 66.7746 82.3663 66.9016 83.1197L67.4486 86.3932L71.0701 86.3265L71.523 83.158C71.6344 82.3808 72.1604 81.7347 72.8947 81.4708C73.2381 81.3484 73.5797 81.2046 73.9103 81.048C74.5993 80.7174 75.417 80.7905 76.0423 81.2371L78.6528 83.0982L81.1671 80.4895L79.3123 78.0165C78.8419 77.3895 78.7584 76.5566 79.0954 75.8438C79.263 75.4894 79.4132 75.1223 79.542 74.7511C79.7954 74.0168 80.4265 73.4821 81.1908 73.3556L84.248 72.8447L84.1813 69.2232L81.1734 68.794C80.4003 68.6844 79.7542 68.1583 79.4863 67.4223C79.3488 67.0424 79.1859 66.6666 79.0055 66.3041C78.6557 65.6023 78.7201 64.7688 79.1748 64.1338L80.9525 61.6404L78.3444 59.1267L75.8817 60.9751C75.2635 61.4391 74.4411 61.5267 73.7346 61.2048C73.3785 61.0418 73.0091 60.898 72.6379 60.7756C71.8885 60.5285 71.3433 59.8934 71.2122 59.118L70.699 56.0481L67.0774 56.1148L66.6268 59.2665C66.5172 60.0263 66.0062 60.6683 65.2934 60.9409C64.9518 61.072 64.6148 61.2198 64.2906 61.3834C63.5906 61.7355 62.7599 61.6711 62.1203 61.2141L59.497 59.3419L56.9833 61.9501L58.9628 64.5885C59.4221 65.2004 59.5126 66.0164 59.2012 66.7183C59.0683 67.0187 58.946 67.3278 58.8404 67.6393C58.5893 68.3776 57.9559 68.9164 57.1898 69.0452L53.9071 69.595L53.9738 73.2165L57.2884 73.6886C58.0505 73.7982 58.6926 74.3133 58.9675 75.0348C59.0789 75.3312 59.2059 75.6229 59.3434 75.9088C59.678 76.6042 59.6096 77.4289 59.163 78.0559L57.2072 80.7998L59.8154 83.3135L62.4601 81.3276C63.0563 80.8718 63.8892 80.7685 64.6084 81.1038L64.6083 81.1036Z" fill="#0E73E4"></path><path d="M60.7905 71.3736C60.7069 66.7796 64.3563 63.02 68.9184 62.9365C73.8263 62.9365 77.276 66.7233 77.3555 71.0645C77.439 75.6585 73.7896 79.4181 69.2275 79.5015C64.9658 79.6709 60.8781 76.1608 60.7905 71.3736ZM68.9655 65.5337C65.844 65.5917 63.3279 68.1657 63.386 71.3261C63.444 74.4301 66.0005 76.9636 69.1784 76.9056C72.2998 76.8476 74.8159 74.2735 74.7579 71.1132C74.6999 67.9922 72.1258 65.4762 68.9655 65.5337V65.5337Z" fill="#0E73E4"></path><path d="M92.1987 22.479H57.0779C56.361 22.479 55.7793 21.8973 55.7793 21.1804C55.7793 20.4636 56.361 19.8818 57.0779 19.8818H92.1987C92.9156 19.8818 93.4973 20.4636 93.4973 21.1804C93.4979 21.8973 92.9156 22.479 92.1987 22.479Z" fill="#0E73E4"></path><path d="M38.3975 25.0684C36.2527 25.0684 34.5098 23.3232 34.5098 21.1807C34.5098 19.0359 36.255 17.293 38.3975 17.293C40.5422 17.293 42.2852 19.0382 42.2852 21.1807C42.2875 23.3232 40.5424 25.0684 38.3975 25.0684ZM38.3975 19.8903C37.687 19.8903 37.107 20.4697 37.107 21.1808C37.107 21.8912 37.6864 22.4712 38.3975 22.4712C39.108 22.4712 39.688 21.8918 39.688 21.1808C39.688 20.4703 39.1103 19.8903 38.3975 19.8903Z" fill="#0E73E4"></path><path d="M49.0342 25.0684C46.8895 25.0684 45.1465 23.3232 45.1465 21.1807C45.1465 19.0359 46.8917 17.293 49.0342 17.293C51.1767 17.293 52.9219 19.0382 52.9219 21.1807C52.9225 23.3232 51.1767 25.0684 49.0342 25.0684V25.0684ZM49.0342 19.8903C48.3237 19.8903 47.7437 20.4697 47.7437 21.1808C47.7437 21.8912 48.3231 22.4712 49.0342 22.4712C49.7447 22.4712 50.3247 21.8918 50.3247 21.1808C50.3247 20.4703 49.7447 19.8903 49.0342 19.8903Z" fill="#0E73E4"></path><path d="M40.0173 72.5187C39.3005 72.5187 38.7188 71.9369 38.7188 71.2201V27.7029C38.7188 26.986 39.3005 26.4043 40.0173 26.4043C40.7342 26.4043 41.3159 26.986 41.3159 27.7029V71.2201C41.3159 71.9364 40.7342 72.5187 40.0173 72.5187Z" fill="#0E73E4"></path><path d="M80.003 48.1879C79.6811 48.1879 79.3592 48.0696 79.1058 47.8295C78.5861 47.3336 78.567 46.5112 79.0629 45.9915L83.614 41.2211L79.0629 36.4507C78.567 35.931 78.5861 35.1091 79.1058 34.6127C79.6254 34.1168 80.4473 34.1359 80.9438 34.6556L86.3492 40.3232C86.8277 40.8255 86.8277 41.6155 86.3492 42.116L80.9438 47.7836C80.688 48.0527 80.3464 48.1879 80.003 48.1879L80.003 48.1879Z" fill="#0E73E4"></path><path d="M58.14 48.1879C57.7967 48.1879 57.4551 48.0528 57.1999 47.7866L51.7944 42.1189C51.3159 41.6166 51.3159 40.8267 51.7944 40.3262L57.1999 34.6585C57.6958 34.1388 58.5182 34.1197 59.0379 34.6156C59.5576 35.1115 59.5767 35.9339 59.0808 36.4536L54.5297 41.224L59.0808 45.9944C59.5767 46.5141 59.5575 47.336 59.0379 47.8324C58.7844 48.0679 58.462 48.188 58.1401 48.188L58.14 48.1879Z" fill="#0E73E4"></path><path d="M66.6863 49.4178C66.5448 49.4178 66.4027 49.394 66.2612 49.347C65.5826 49.1133 65.2241 48.3727 65.4585 47.694L70.2307 33.9008C70.4644 33.2222 71.205 32.8638 71.8837 33.0981C72.5622 33.3318 72.9207 34.0725 72.6864 34.7511L67.9141 48.5443C67.7274 49.0808 67.2251 49.4178 66.6863 49.4178L66.6863 49.4178Z" fill="#0E73E4"></path></svg>