<svg xmlns="http://www.w3.org/2000/svg" width="128" height="108" viewBox="0 0 128 108" fill="none"><path d="M33.9778 16.4014C33.0535 16.4046 32.1679 16.7736 31.5143 17.4274C30.8606 18.0811 30.4916 18.9667 30.4883 19.8909V66.9092C30.4916 67.8341 30.8605 68.7197 31.5143 69.3733C32.168 70.0269 33.0536 70.3955 33.9778 70.3988H94.3053C95.2297 70.3955 96.1158 70.0271 96.7695 69.3733C97.4231 68.7195 97.7916 67.834 97.7949 66.9092V19.8909C97.7916 18.9666 97.4232 18.081 96.7695 17.4274C96.1157 16.7737 95.2296 16.4046 94.3053 16.4014H33.9778ZM95.555 19.8911V66.9093C95.555 67.234 95.426 67.5456 95.1964 67.7752C94.9668 68.0047 94.6552 68.1338 94.3305 68.1338H33.9778C33.3017 68.1338 32.7534 67.5855 32.7534 66.9093V19.8911C32.7534 19.2149 33.3017 18.6666 33.9778 18.6666H94.3053C94.6344 18.6601 94.952 18.7863 95.187 19.0165C95.4221 19.2471 95.5544 19.562 95.5544 19.8911H95.555Z" fill="#0E73E4"></path><path d="M98.2858 72.4211H74.2617C73.9206 72.4255 73.5964 72.572 73.368 72.8251L69.0458 77.7228H58.9688L54.634 72.8251C54.4055 72.572 54.0814 72.4255 53.7403 72.4211H29.8141C28.7684 72.3861 27.7533 72.7748 26.9979 73.4985C26.3054 74.266 25.9993 75.3067 26.1654 76.3273C26.1654 76.7192 26.9493 86.0003 45.9523 86.0003H82.0486C101.064 86.0003 101.823 76.7193 101.835 76.3885C102.016 75.3482 101.709 74.2834 101.003 73.4985C100.274 72.7956 99.2974 72.4085 98.2845 72.4211H98.2858ZM99.5102 76.1922C99.5102 76.2655 98.8734 83.6246 82.0743 83.6246H45.9542C29.3634 83.6246 28.4945 76.2413 28.4945 76.1309C28.4103 75.7838 28.4819 75.417 28.6901 75.1273C28.9815 74.8956 29.3472 74.778 29.7189 74.7966H53.2154L57.5502 79.6944H57.5496C57.7699 79.9524 58.0924 80.1 58.4314 80.0983H69.5737C69.9148 80.0939 70.2389 79.9475 70.4674 79.6944L74.7896 74.7966H98.2861C98.6458 74.7955 98.9957 74.9163 99.2777 75.1394C99.4985 75.4427 99.5833 75.8243 99.5106 76.1921L99.5102 76.1922Z" fill="#0E73E4"></path><path d="M79.1026 77.1448L76.8866 79.8265V79.826C76.6947 80.0544 76.6024 80.3496 76.6297 80.6464C76.6576 80.9433 76.803 81.2166 77.0337 81.4057C77.2293 81.5784 77.4819 81.6741 77.7437 81.6752C78.0815 81.6752 78.4013 81.5221 78.6128 81.2587L80.8289 78.5895H80.8294C81.0349 78.3621 81.1388 78.0615 81.118 77.7554C81.0967 77.4498 80.9518 77.1661 80.7168 76.9693C80.4823 76.7731 80.1773 76.6807 79.8728 76.7135C79.5678 76.7463 79.2901 76.9021 79.1026 77.1448V77.1448Z" fill="#0E73E4"></path><path d="M84.0577 77.1448L81.8417 79.8265V79.826C81.6498 80.0544 81.5575 80.3496 81.5848 80.6464C81.6127 80.9433 81.7581 81.2166 81.9887 81.4057C82.1844 81.5784 82.437 81.6741 82.6988 81.6752C83.0366 81.6752 83.3564 81.5221 83.5679 81.2587L85.7839 78.5895H85.7845C85.99 78.3621 86.0939 78.0615 86.0731 77.7554C86.0518 77.4498 85.9069 77.1661 85.6719 76.9693C85.4374 76.7731 85.1324 76.6807 84.8279 76.7135C84.5229 76.7463 84.2452 76.9021 84.0577 77.1448V77.1448Z" fill="#0E73E4"></path><path d="M89.0181 77.1448L86.7895 79.8265V79.826C86.397 80.3037 86.4626 81.0089 86.9365 81.4057C87.1371 81.5795 87.3935 81.6752 87.6591 81.6752C87.9964 81.6719 88.3145 81.5194 88.5283 81.2587L90.7443 78.5895H90.7448C90.9504 78.3621 91.0542 78.0615 91.0335 77.7554C91.0121 77.4498 90.8673 77.1661 90.6322 76.9693C90.3977 76.7731 90.0927 76.6807 89.7882 76.7135C89.4832 76.7463 89.2055 76.9021 89.0181 77.1448L89.0181 77.1448Z" fill="#0E73E4"></path><path d="M48.9047 77.1448C48.7172 76.9021 48.4395 76.7463 48.1345 76.7135C47.8301 76.6807 47.525 76.7731 47.2906 76.9693C47.0555 77.1661 46.9107 77.4498 46.8893 77.7554C46.8686 78.0615 46.9724 78.3621 47.1779 78.5895L49.394 81.2587H49.3945C49.6082 81.5194 49.9264 81.6719 50.2636 81.6752C50.5293 81.6752 50.7857 81.5795 50.9863 81.4057C51.4602 81.0089 51.5258 80.3037 51.1333 79.826L48.9047 77.1448Z" fill="#0E73E4"></path><path d="M43.9452 77.1459C43.5483 76.6714 42.8432 76.6058 42.3654 76.9988C41.8899 77.4001 41.8243 78.109 42.2184 78.5906L44.4104 81.2597C44.6312 81.5117 44.9449 81.6621 45.2795 81.6763C45.5457 81.6785 45.8026 81.5823 46.0021 81.4068C46.4766 81.0099 46.5422 80.3048 46.1492 79.8271L43.9452 77.1459Z" fill="#0E73E4"></path><path d="M38.9862 77.1459C38.5894 76.6714 37.8842 76.6058 37.4065 76.9988C36.9309 77.4001 36.8653 78.109 37.2594 78.5906L39.5127 81.2597C39.7215 81.5199 40.0363 81.6724 40.3698 81.6763C40.6354 81.6785 40.8929 81.5823 41.0924 81.4068C41.5663 81.0099 41.6319 80.3048 41.2389 79.8271L38.9862 77.1459Z" fill="#0E73E4"></path><path d="M88.9091 24.58C85.7009 20.4049 77.0687 25.6574 65.1061 34.8406V34.8412C60.216 38.4505 55.7402 42.5901 51.7598 47.1834C51.0371 47.085 50.3047 47.2692 49.7149 47.6977L48.0739 48.9222H48.0744C47.4633 49.3813 47.0588 50.0635 46.9478 50.82C46.9172 51.072 46.9172 51.3267 46.9478 51.5787L42.442 52.6315V52.632C42.0479 52.7277 41.7271 53.0119 41.5849 53.3913L38.6096 61.8891L38.6091 61.8886C38.4801 62.3242 38.6025 62.7954 38.9278 63.113C39.1508 63.3956 39.4864 63.5656 39.8461 63.5782H39.9439L48.919 62.9047C49.3207 62.867 49.6782 62.6331 49.8739 62.2805L52.1637 57.995C52.3698 58.0338 52.5786 58.054 52.7885 58.0562C53.405 58.0573 54.0063 57.8594 54.5027 57.4932L56.1437 56.2688H56.1431C56.6712 55.8736 57.044 55.3062 57.1965 54.6644C62.7551 51.9958 67.9961 48.71 72.8202 44.8689C85.1378 35.4775 92.1663 28.7806 88.91 24.5797L88.9091 24.58ZM48.0858 60.6274L41.3634 61.1292L43.592 54.7741L48.0858 53.7339L50.2405 56.6233L48.0858 60.6274ZM54.7097 54.4074L53.0687 55.6318H53.0693C52.9698 55.734 52.8266 55.7816 52.6855 55.7597C52.5445 55.7379 52.4226 55.6493 52.3592 55.5214L49.3713 51.53C49.3145 51.4295 49.2931 51.313 49.3101 51.1993C49.3314 51.0621 49.4063 50.9386 49.5183 50.8566L51.1468 49.6322L51.2812 49.5709L52.2362 50.2324L54.7708 53.6482L54.9299 54.1133H54.9304C54.9058 54.2336 54.8359 54.3391 54.7342 54.4074L54.7097 54.4074ZM71.3494 43.0322C66.7895 46.6273 61.8645 49.7338 56.6562 52.3012L53.84 48.3951C57.6598 44.0713 61.9196 40.1564 66.5495 36.7142C78.5243 27.519 85.4184 23.9309 87.022 26.025C89.4463 29.1593 76.3328 39.2489 71.3493 43.0327L71.3494 43.0322Z" fill="#0E73E4"></path><path d="M73.4786 34.9143L61.8831 43.8526C61.3846 44.2653 61.2933 44.9951 61.6749 45.5176C61.9006 45.8035 62.2417 45.974 62.6052 45.9833C62.8659 45.9806 63.119 45.8948 63.3278 45.7384L74.9233 36.8493V36.8488C75.2693 36.699 75.5273 36.3984 75.6219 36.0332C75.717 35.6681 75.6383 35.28 75.4087 34.9804C75.1797 34.6809 74.8249 34.5043 74.4477 34.501C74.0706 34.4972 73.7131 34.6683 73.4786 34.9635V34.9143Z" fill="#0E73E4"></path><path d="M77.8376 31.6102L76.4907 32.639C76.1354 32.9675 76.0069 33.4748 76.1633 33.9328C76.3196 34.3909 76.7312 34.7139 77.2133 34.7571C77.4746 34.7599 77.7293 34.6735 77.9354 34.5122L79.2703 33.4835C79.6256 33.3414 79.8945 33.0413 79.9962 32.6718C80.0979 32.3028 80.0213 31.907 79.7885 31.6026C79.5556 31.2986 79.1943 31.1204 78.8111 31.1221C78.4279 31.1237 78.0677 31.3041 77.8376 31.6102H77.8376Z" fill="#0E73E4"></path><path d="M45.2554 56.6855C45.0395 56.9096 44.9165 57.207 44.9121 57.518C44.9121 57.8427 45.0411 58.1543 45.2707 58.3839C45.5008 58.6135 45.8119 58.7425 46.1365 58.7425C46.4454 58.7441 46.7417 58.6206 46.957 58.3997C47.191 58.1822 47.3205 57.8744 47.3123 57.5552C47.3123 57.2403 47.1844 56.9397 46.957 56.7221C46.4924 56.2531 45.7397 56.2367 45.2554 56.6855L45.2554 56.6855Z" fill="#0E73E4"></path><path d="M38.4599 25.487H43.3576C43.7255 25.587 44.1191 25.51 44.4225 25.2782C44.7253 25.0464 44.903 24.6867 44.903 24.3052C44.903 23.9242 44.7253 23.5645 44.4225 23.3328C44.1191 23.101 43.7255 23.0239 43.3576 23.1239H38.4599C38.0915 23.0239 37.6979 23.101 37.3951 23.3328C37.0917 23.5645 36.9141 23.9242 36.9141 24.3052C36.9141 24.6867 37.0917 25.0464 37.3951 25.2782C37.6979 25.5099 38.0915 25.587 38.4599 25.487Z" fill="#0E73E4"></path><path d="M51.4017 29.8328C51.4017 29.5081 51.2727 29.1965 51.0431 28.9669C50.8135 28.7373 50.5019 28.6083 50.1773 28.6083H38.4599C38.0915 28.5083 37.6979 28.5854 37.3951 28.8171C37.0917 29.0489 36.9141 29.4086 36.9141 29.7901C36.9141 30.1711 37.0917 30.5308 37.3951 30.7626C37.6979 30.9943 38.0915 31.0714 38.4599 30.9714H50.2265C50.8519 30.9479 51.3586 30.457 51.4017 29.8328H51.4017Z" fill="#0E73E4"></path><path d="M89.8132 55.8398H84.8176C84.2847 55.9846 83.9141 56.4684 83.9141 57.021C83.9141 57.5736 84.2847 58.058 84.8176 58.2028H89.7154C90.0832 58.3028 90.4774 58.2258 90.7802 57.994C91.083 57.7622 91.2607 57.4025 91.2607 57.021C91.2607 56.6395 91.083 56.2798 90.7802 56.0486C90.4774 55.8168 90.0832 55.7397 89.7154 55.8398H89.8132Z" fill="#0E73E4"></path><path d="M89.8105 61.3758H78.0439C77.6755 61.2758 77.2819 61.3534 76.9791 61.5846C76.6762 61.8164 76.498 62.1761 76.498 62.5576C76.498 62.9391 76.6762 63.2988 76.9791 63.5306C77.2819 63.7618 77.6755 63.8394 78.0439 63.7394H89.8105C90.1789 63.8394 90.5725 63.7618 90.8753 63.5306C91.1782 63.2988 91.3563 62.9391 91.3563 62.5576C91.3563 62.1761 91.1782 61.8164 90.8753 61.5846C90.5725 61.3534 90.1789 61.2758 89.8105 61.3758Z" fill="#0E73E4"></path></svg>