<svg xmlns="http://www.w3.org/2000/svg" width="128" height="108" viewBox="0 0 128 108" fill="none"><mask id="mask0_1810_152" style="mask-type:alpha" maskUnits="userSpaceOnUse" x="18" y="15" width="93" height="78"><rect x="18" y="15" width="92.5737" height="78" fill="#D9D9D9"></rect></mask><g mask="url(#mask0_1810_152)"><path d="M97.5935 19.6172H30.6394C27.9726 19.6172 25.8008 21.789 25.8008 24.4574V71.0221C25.8008 73.6905 27.9726 75.8607 30.6394 75.8607H62.5838V83.2645H51.5798C50.7336 83.2645 50.0473 83.9498 50.0473 84.797C50.0473 85.6448 50.7342 86.3295 51.5798 86.3295H76.6534C77.5011 86.3295 78.1859 85.6442 78.1859 84.797C78.1859 83.9492 77.5006 83.2645 76.6534 83.2645H65.6488V75.8607H97.5932C100.262 75.8607 102.432 73.6905 102.432 71.0221V24.4574C102.432 21.789 100.262 19.6172 97.5932 19.6172H97.5935ZM30.6394 22.6827H97.5935C98.5701 22.6827 99.3671 23.4781 99.3671 24.4574V61.7743H95.543V30.796C95.543 28.1275 93.3729 25.9574 90.7044 25.9574H74.0357C71.3673 25.9574 69.1971 28.1292 69.1971 30.796V61.7743L28.8656 61.7737V24.4569C28.8656 23.4776 29.661 22.6822 30.6392 22.6822L30.6394 22.6827ZM92.4783 31.5337H72.2626V30.7949C72.2626 29.8173 73.0596 29.0219 74.0357 29.0219H90.7044C91.6821 29.0219 92.4775 29.8173 92.4775 30.7949L92.4783 31.5337ZM72.2613 62.616V34.5976H92.477V65.5088C92.477 66.4865 91.68 67.2819 90.7039 67.2819L74.0365 67.2824C73.0589 67.2824 72.2635 66.4854 72.2635 65.5094L72.2629 62.6154L72.2613 62.616ZM97.5935 72.7942H30.6394C29.6612 72.7942 28.8658 71.9977 28.8658 71.0195V64.8369H69.1959V65.5083C69.1959 68.1767 71.3661 70.3469 74.0345 70.3469H90.7032C93.3716 70.3469 95.5418 68.1767 95.5418 65.5083V64.8369H99.367V71.0195C99.367 71.9977 98.57 72.7942 97.5933 72.7942H97.5935Z" fill="#0E73E4"></path><path d="M80.3372 64.7691H84.4002C85.2479 64.7691 85.9327 64.0838 85.9327 63.2366C85.9327 62.3888 85.2474 61.7041 84.4002 61.7041H80.3372C79.4894 61.7041 78.8047 62.3894 78.8047 63.2366C78.8047 64.0838 79.49 64.7691 80.3372 64.7691Z" fill="#0E73E4"></path><path d="M33.294 33.4372C33.3122 33.534 33.3228 33.6275 33.3597 33.7179C33.3982 33.813 33.4608 33.8927 33.519 33.9782C33.565 34.0472 33.588 34.1252 33.6462 34.1867C33.6601 34.2022 33.6799 34.2064 33.6938 34.2203C33.7093 34.2358 33.7136 34.2556 33.7291 34.2711L39.1012 39.2397C39.3958 39.5123 39.7694 39.6476 40.142 39.6476C40.5541 39.6476 40.9668 39.4819 41.2672 39.1558C41.8418 38.5336 41.805 37.565 41.1828 36.9904L37.0262 33.1465L41.1828 29.301C41.8034 28.7263 41.8418 27.7562 41.2672 27.1356C40.6942 26.5166 39.7255 26.4765 39.1018 27.0511L33.7291 32.0223C33.7136 32.0362 33.7094 32.056 33.6938 32.0715C33.6783 32.087 33.6602 32.0913 33.6447 32.1068C33.5864 32.1699 33.5618 32.2479 33.5174 32.3169C33.4608 32.4029 33.3961 32.4826 33.3598 32.5761C33.3213 32.6697 33.3106 32.7664 33.2924 32.8642C33.2737 32.9572 33.248 33.0492 33.248 33.1459C33.248 33.2454 33.2737 33.3389 33.294 33.4373L33.294 33.4372Z" fill="#0E73E4"></path><path d="M54.142 33.1465L49.9854 36.9921C49.3648 37.5667 49.3263 38.5369 49.901 39.1575C50.203 39.4841 50.6135 39.6492 51.0262 39.6492C51.3987 39.6492 51.7708 39.5145 52.0669 39.2414L57.4391 34.2713C57.4546 34.2574 57.4604 34.236 57.4743 34.2205C57.4882 34.2066 57.508 34.2023 57.5219 34.1868C57.5802 34.1237 57.6048 34.0457 57.6491 33.9767C57.7058 33.8907 57.7705 33.811 57.8068 33.7175C57.8453 33.6239 57.856 33.5272 57.8742 33.4294C57.8923 33.3342 57.9185 33.2423 57.9185 33.1461C57.9185 33.0466 57.8923 32.9531 57.8742 32.8547C57.856 32.758 57.8453 32.6644 57.8084 32.5741C57.7699 32.479 57.7058 32.3993 57.6491 32.3138C57.6032 32.2448 57.5802 32.1668 57.5219 32.1053C57.508 32.0898 57.4882 32.0855 57.4727 32.07C57.4572 32.0545 57.453 32.0364 57.4374 32.0209L52.0653 27.0523C51.4431 26.4776 50.4745 26.5145 49.8999 27.1367C49.3253 27.7589 49.3622 28.7275 49.9844 29.3021L54.142 33.1465Z" fill="#0E73E4"></path><path d="M44.6006 39.5815C44.6744 39.5921 44.746 39.597 44.8198 39.597C45.5708 39.597 46.2252 39.0453 46.3357 38.2804L47.7367 28.4421C47.8565 27.604 47.2738 26.8283 46.4356 26.7086C45.5991 26.5905 44.8219 27.1715 44.7021 28.0097L43.3011 37.8479C43.1798 38.685 43.7624 39.4623 44.6006 39.5815L44.6006 39.5815Z" fill="#0E73E4"></path><path d="M34.7708 46.6524H42.3495C43.1957 46.6524 43.882 45.9656 43.882 45.1199C43.882 44.2738 43.1951 43.5874 42.3495 43.5874L34.7708 43.5869C33.9246 43.5869 33.2383 44.2738 33.2383 45.1194C33.2383 45.9656 33.923 46.6525 34.7708 46.6525V46.6524Z" fill="#0E73E4"></path><path d="M34.7708 52.3716H47.7232C48.5693 52.3716 49.2557 51.6848 49.2557 50.8391C49.2557 49.993 48.5688 49.3066 47.7232 49.3066H34.7708C33.9246 49.3066 33.2383 49.9935 33.2383 50.8391C33.2383 51.6853 33.923 52.3716 34.7708 52.3716Z" fill="#0E73E4"></path><path d="M34.7708 58.0865H56.3987C57.2448 58.0865 57.9312 57.4012 57.9312 56.554C57.9312 55.7062 57.2443 55.0215 56.3987 55.0215H34.7708C33.9246 55.0215 33.2383 55.7068 33.2383 56.554C33.2383 57.4012 33.923 58.0865 34.7708 58.0865Z" fill="#0E73E4"></path></g></svg>