<svg xmlns="http://www.w3.org/2000/svg" width="128" height="108" viewBox="0 0 128 108" fill="none"><path d="M58.2862 12C57.5183 12.0031 56.8981 12.6285 56.9013 13.3967V20.5532C53.5794 21.3319 50.4288 22.6466 47.5284 24.4439L42.4578 19.3709C41.9152 18.8318 41.0392 18.8318 40.4966 19.3709L32.3977 27.4732C31.8582 28.0153 31.8582 28.8922 32.3977 29.4343L37.3244 34.3633C36.927 35.0762 36.5397 35.7916 36.0828 36.4685C35.8543 36.7728 35.76 37.1571 35.822 37.5329C35.8847 37.9086 36.0977 38.242 36.4124 38.4557C36.7272 38.6699 37.1158 38.7457 37.4876 38.665C37.8595 38.5848 38.1823 38.3557 38.3809 38.0309C39.0849 36.9876 39.7268 35.8958 40.3011 34.7762C40.5761 34.2408 40.4761 33.59 40.054 33.1622L35.344 28.4482L41.4713 22.3188L46.195 27.0435C46.6661 27.5092 47.3999 27.5775 47.9493 27.2068C51.1509 25.045 54.76 23.5571 58.5526 22.8219C59.2026 22.6921 59.6713 22.1214 59.6713 21.4575V14.7824H68.3463V21.4359C68.3463 22.1041 68.8206 22.6773 69.4761 22.8027C73.2717 23.5386 76.8749 25.0316 80.0794 27.1958C80.6307 27.5727 81.3719 27.5044 81.8449 27.0331L86.5462 22.3191L92.684 28.4485L87.9609 33.1731C87.4959 33.6451 87.4277 34.3791 87.7983 34.9287C89.9593 38.1318 91.4467 41.7449 92.1817 45.5379C92.3115 46.1894 92.8838 46.6582 93.5481 46.6576H100.219V55.3324H93.5669C92.8995 55.3324 92.3259 55.8068 92.2011 56.4626C91.4654 60.2595 89.973 63.8638 87.8095 67.0695H87.8089C87.4327 67.6209 87.501 68.3624 87.9722 68.8355L92.6846 73.5384L86.5468 79.6789L81.8344 74.9568H81.8338C81.3632 74.4904 80.6288 74.4209 80.0794 74.791C76.8774 76.9528 73.2681 78.4407 69.4761 79.1759C68.8206 79.3014 68.3463 79.8746 68.3463 80.5428V87.2179H59.6713V80.5644C59.6725 79.8999 59.2038 79.3274 58.5526 79.1976C54.757 78.4617 51.1428 76.9657 47.9382 74.8015C47.3888 74.432 46.6544 74.5009 46.1838 74.9673L41.4714 79.6783L35.3441 73.5384L40.0646 68.8274C40.5321 68.3561 40.6016 67.6196 40.2304 67.0693C39.591 66.1216 39.0062 65.1299 38.4841 64.1133C38.3196 63.7779 38.0272 63.5227 37.6727 63.4047C37.3183 63.2873 36.9315 63.3171 36.5994 63.4879C36.2673 63.6587 36.0177 63.9555 35.9066 64.3126C35.7961 64.6691 35.8327 65.056 36.0096 65.3845C36.4057 66.1558 36.8769 66.8873 37.335 67.6232L32.3973 72.5626H32.3979C31.8584 73.1054 31.8584 73.9816 32.3979 74.5244L40.4968 82.6261C41.0394 83.1657 41.9153 83.1657 42.4579 82.6261L47.5174 77.5649C50.421 79.3651 53.5751 80.6867 56.9014 81.4667V88.604V88.6033C56.8983 89.3715 57.5185 89.9969 58.2864 90H69.7426C70.5105 89.9969 71.1307 89.3715 71.1276 88.6033V81.4468C74.4494 80.6675 77.6001 79.3508 80.5005 77.5538L85.5711 82.6261C86.1137 83.1658 86.9896 83.1658 87.5322 82.6261L95.6311 74.5244C96.1706 73.9817 96.1706 73.1054 95.6311 72.5627L90.5797 67.5008C92.3781 64.5969 93.6924 61.4398 94.4715 58.1136H101.604V58.1143C102.372 58.1174 102.997 57.497 103 56.7288V45.2687C102.997 44.5006 102.372 43.8802 101.604 43.8833H94.4497C93.6706 40.5603 92.357 37.4086 90.5604 34.5072L95.631 29.4349V29.4343C96.1705 28.8921 96.1705 28.0153 95.631 27.4731L87.5321 19.3708C86.9895 18.8318 86.1135 18.8318 85.5709 19.3708L80.5114 24.4246C77.6085 22.6256 74.4518 21.3108 71.1274 20.5315V13.3968C71.1305 12.6286 70.5104 12.0032 69.7424 12.0001L58.2862 12ZM58.213 42.2201C57.645 42.2368 57.1446 42.597 56.9484 43.1305C56.7523 43.6639 56.9006 44.2632 57.3222 44.6439L62.6077 49.6021H26.4222C26.0479 49.594 25.686 49.7368 25.4184 49.9983C25.1509 50.2603 25 50.6186 25 50.9931C25 51.3676 25.1509 51.7259 25.4184 51.988C25.686 52.2494 26.0479 52.3923 26.4222 52.3842H62.6172L57.3212 57.3559C57.0425 57.6068 56.8761 57.9595 56.8606 58.3346C56.8451 58.7097 56.981 59.0748 57.2374 59.3481C57.4944 59.6219 57.8508 59.7803 58.2257 59.7877C58.6007 59.7952 58.9626 59.6511 59.2308 59.3884L67.0715 52.0146C67.3632 51.7401 67.5228 51.3526 67.5091 50.952C67.5029 50.7663 67.4595 50.5832 67.3812 50.4142C67.3626 50.3726 67.3415 50.3316 67.3185 50.2919C67.2962 50.2528 67.272 50.2149 67.2453 50.1783C67.2447 50.177 67.2434 50.1764 67.2428 50.1751C67.2416 50.1745 67.2409 50.1733 67.2397 50.1727C67.2211 50.1466 67.2012 50.1211 67.1801 50.0963C67.1578 50.0702 67.1342 50.0447 67.1093 50.0205C67.0969 50.0075 67.0845 49.9951 67.0715 49.9826L67.0578 49.969C67.0553 49.9671 67.0528 49.9652 67.0497 49.9634L59.2308 42.6088C58.9583 42.3461 58.5902 42.2057 58.2121 42.22L58.213 42.2201Z" fill="#0E73E4"></path></svg>